<svg preserveAspectRatio="none" viewBox="0 0 165 6" xmlns="http://www.w3.org/2000/svg">
    <path d="M95.2883 1.53848C119.43 0.80025 135.13 0.316043 138.333 0.21075C140.088 0.152818 146.806 0.0714058 153.262 0.0291317C164.726 -0.0456308 165 -0.0291846 165 0.735272C165 1.32828 164.696 1.51852 163.746 1.51891C161.254 1.52087 133.371 2.31546 115.54 2.89242C87.0903 3.81306 65.8668 4.24755 48.7583 4.2589C32.5255 4.26986 22.6413 4.61589 9.42393 5.63594C3.98108 6.05594 1.51266 6.108 0.876747 5.8156C-1.19874 4.86209 0.584548 3.87022 4.39682 3.85809C5.85508 3.85378 10.3302 3.58447 14.3416 3.25998C19.2179 2.86581 31.694 2.54837 51.9825 2.30256C68.6735 2.10019 88.161 1.75651 95.2883 1.53848Z" fill="currentColor" />
</svg>
