<svg preserveAspectRatio="none" viewBox="0 0 126 50" fill="none" xmlns="http://www.w3.org/2000/svg">
    <path d="M19.8296 4.64018C39.1364 0.92808 78.6674 2.94293 101.755 0.92808L102.054 0.901936C107.051 0.465456 112.38 0 122.78 0C125.68 -3.03536e-05 125.68 3.09341 125.68 4.64012C125.921 14.8484 126.26 35.8217 125.68 38.049C124.955 40.8331 121.33 39.905 99.5797 41.7611C77.8297 43.6171 43.318 42.4275 31.3347 44.7325C14.8451 47.9044 2.95566 51.8846 2.27626 48.2015C0.826257 40.3407 2.28156 28.2764 0.831557 20.8522C-0.328445 14.9129 -0.623804 13.7374 2.27626 12.5C7.49626 10.2727 12.285 6.09078 19.8296 4.64018Z" fill="#AFC4B3"/>
</svg>
