<svg width="512" height="512" viewBox="0 0 512 512" fill="none" xmlns="http://www.w3.org/2000/svg">
<g clip-path="url(#clip0_3728_2685)">
<rect y="5" width="512" height="501.939" rx="250.97" fill="#FCFBF9"/>
<g clip-path="url(#clip1_3728_2685)">
<path d="M132.773 190.944V251.713H136.669V223.06L164.63 251.713H169.737L140.045 221.415L169.65 190.944H164.63L136.669 219.857V190.944H132.773Z" fill="#64472C"/>
<path d="M182.637 204.708H178.741V251.714H182.637V204.708Z" fill="#64472C"/>
<path d="M184.022 190.857C184.022 189.876 183.705 189.068 183.07 188.434C182.435 187.799 181.656 187.481 180.733 187.481C179.809 187.481 179.03 187.799 178.395 188.434C177.761 189.068 177.443 189.876 177.443 190.857C177.443 191.896 177.761 192.714 178.395 193.32C179.03 193.926 179.809 194.233 180.733 194.233C181.656 194.233 182.435 193.926 183.07 193.32C183.705 192.714 184.022 191.887 184.022 190.857Z" fill="#64472C"/>
<path d="M196.919 204.708V251.713H200.815V226.35C200.815 220.002 202.325 215.212 205.355 211.98C208.385 208.748 212.434 207.132 217.522 207.132C222.61 207.132 226.208 208.613 229.035 211.585C231.863 214.557 233.277 218.847 233.277 224.445V251.713H237.086V224.186C237.086 217.433 235.326 212.345 231.805 208.911C228.285 205.478 223.726 203.756 218.128 203.756C214.088 203.756 210.52 204.699 207.432 206.574C204.345 208.45 202.133 211.153 200.815 214.673V204.718H196.919V204.708Z" fill="#64472C"/>
<path d="M291.786 241.018C293.806 237.353 294.816 233.073 294.816 228.158C294.816 223.243 293.816 218.982 291.834 215.346C289.843 211.711 287.083 208.931 283.563 206.988C280.042 205.055 276.089 204.093 271.703 204.093C267.317 204.093 263.345 205.064 259.795 206.988C256.246 208.921 253.457 211.72 251.437 215.385C249.417 219.049 248.407 223.31 248.407 228.148C248.407 232.987 249.408 237.344 251.389 241.008C253.38 244.673 256.131 247.491 259.661 249.453C263.181 251.415 267.134 252.397 271.52 252.397C275.906 252.397 279.879 251.415 283.428 249.453C286.977 247.491 289.757 244.683 291.786 241.008V241.018ZM271.53 248.943C268.125 248.943 264.961 248.184 262.056 246.654C259.141 245.125 256.804 242.807 255.044 239.681C253.284 236.565 252.399 232.727 252.399 228.168C252.399 223.609 253.293 219.857 255.082 216.741C256.871 213.625 259.218 211.307 262.133 209.768C265.047 208.238 268.202 207.479 271.607 207.479C275.012 207.479 278.186 208.248 281.129 209.768C284.072 211.297 286.438 213.625 288.227 216.741C290.016 219.857 290.911 223.666 290.911 228.168C290.911 232.669 290.016 236.565 288.227 239.681C286.438 242.797 284.053 245.125 281.091 246.654C278.119 248.184 274.925 248.943 271.53 248.943Z" fill="#64472C"/>
<path d="M377.103 249.463C380.652 247.501 383.432 244.692 385.461 241.018C387.481 237.353 388.491 233.073 388.491 228.158C388.491 223.243 387.491 218.982 385.509 215.346C383.518 211.711 380.758 208.931 377.238 206.988C373.717 205.055 369.764 204.093 365.378 204.093C360.992 204.093 357.02 205.064 353.47 206.988C349.921 208.921 347.132 211.72 345.112 215.385C343.092 219.049 342.082 223.31 342.082 228.148C342.082 232.987 343.083 237.344 345.064 241.008C347.055 244.673 349.806 247.491 353.336 249.453C356.856 251.415 360.809 252.397 365.195 252.397C369.581 252.397 373.554 251.415 377.103 249.453V249.463ZM348.709 239.681C346.949 236.565 346.064 232.727 346.064 228.168C346.064 223.609 346.959 219.857 348.748 216.741C350.537 213.625 352.884 211.307 355.798 209.768C358.713 208.238 361.867 207.479 365.272 207.479C368.677 207.479 371.851 208.248 374.795 209.768C377.738 211.297 380.104 213.625 381.893 216.741C383.682 219.857 384.576 223.666 384.576 228.168C384.576 232.669 383.682 236.565 381.893 239.681C380.104 242.797 377.719 245.125 374.756 246.654C371.784 248.184 368.591 248.943 365.195 248.943C361.8 248.943 358.626 248.184 355.721 246.654C352.807 245.125 350.47 242.807 348.709 239.681Z" fill="#64472C"/>
<path d="M189.783 64.0973C274.031 37.2331 364.819 67.7234 415.691 139.967L418.836 137.755C394.233 102.821 358.317 75.8702 317.718 61.8754C275.714 47.3997 231.066 46.8996 188.62 60.4327C146.164 73.9658 110.047 100.214 84.1733 136.332C59.1558 171.246 45.4688 214.01 45.6323 256.745L49.4797 256.725C49.1526 168.371 105.536 90.9615 189.783 64.0973Z" fill="#64472C"/>
<path d="M406.398 146.325C383.391 113.651 349.804 88.4509 311.82 75.3602C272.539 61.8175 230.776 61.3558 191.071 74.0137L192.235 77.6783C270.932 52.5934 355.728 81.064 403.243 148.537L406.389 146.325H406.398Z" fill="#64472C"/>
<path d="M341.447 196.966C341.447 195.908 340.129 194.128 340.129 194.128C325.932 173.66 305.792 159.079 281.871 151.98C257.95 144.882 233.115 146.103 210.05 155.51L211.502 159.069C233.75 149.989 257.699 148.816 280.774 155.664C303.849 162.512 323.278 176.575 336.965 196.312L337.6 197.591L310.572 225.984V187.636H306.676V251.694H310.572V230.14L331.088 251.694H336.455L313.429 228.062L340.639 199.572C340.639 199.572 341.437 198.024 341.437 196.956L341.447 196.966Z" fill="#64472C"/>
<path d="M65.8684 268.527C65.8684 264.602 66.7436 261.774 68.5038 260.053C70.264 258.321 73.39 257.456 77.8914 257.456V253.993C72.2358 253.993 68.1768 255.196 65.6952 257.581C63.2137 259.976 61.9729 263.621 61.9729 268.527V271.816H54.8745V275.279H61.9729V318.792H65.8684V275.279H78.0645V271.816H65.8684V268.527Z" fill="#64472C"/>
<path d="M120.712 274.105C117.192 272.172 113.239 271.21 108.862 271.21C104.486 271.21 100.513 272.172 96.9643 274.105C93.4151 276.039 90.6354 278.838 88.6155 282.493C86.5956 286.157 85.5857 290.409 85.5857 295.256C85.5857 300.104 86.5764 304.442 88.5674 308.106C90.5584 311.771 93.3093 314.58 96.8296 316.542C100.35 318.504 104.294 319.485 108.68 319.485C113.066 319.485 117.028 318.504 120.577 316.542C124.127 314.58 126.906 311.771 128.926 308.106C130.946 304.442 131.956 300.162 131.956 295.256C131.956 290.351 130.965 286.09 128.974 282.454C126.983 278.818 124.232 276.039 120.712 274.105ZM125.377 306.76C123.588 309.876 121.212 312.194 118.24 313.724C115.268 315.253 112.084 316.013 108.68 316.013C105.275 316.013 102.12 315.253 99.2054 313.724C96.291 312.194 93.9537 309.876 92.2032 306.76C90.443 303.644 89.5677 299.815 89.5677 295.256C89.5677 290.697 90.4622 286.956 92.2513 283.839C94.0403 280.723 96.3872 278.405 99.3016 276.875C102.216 275.346 105.371 274.586 108.776 274.586C112.181 274.586 115.345 275.346 118.288 276.875C121.232 278.405 123.598 280.723 125.387 283.839C127.176 286.956 128.07 290.755 128.07 295.256C128.07 299.758 127.176 303.644 125.387 306.76H125.377Z" fill="#64472C"/>
<path d="M146.951 313.848C147.038 314.012 147.144 314.166 147.269 314.329C168.391 351.341 207.875 374.319 250.465 374.319C274.261 374.319 297.22 367.307 316.861 354.044L314.668 350.802C295.681 363.633 273.482 370.414 250.465 370.414C209.76 370.414 171.998 348.715 151.405 313.656C151.097 313.06 150.818 312.492 150.549 311.934C149.837 310.472 149.606 309.703 149.606 306.24V275.182H163.534V271.806H149.606V259.87H145.711V271.806H138.612V275.182H145.711V306.24C145.711 310.742 145.932 311.877 146.951 313.848Z" fill="#64472C"/>
<path d="M171.403 295.256C171.403 300.162 172.393 304.442 174.384 308.106C176.375 311.771 179.126 314.58 182.647 316.542C186.167 318.504 190.11 319.485 194.496 319.485C198.882 319.485 202.845 318.504 206.394 316.542C209.944 314.58 212.723 311.771 214.743 308.106C216.763 304.442 217.773 300.162 217.773 295.256C217.773 290.351 216.782 286.09 214.791 282.454C212.8 278.818 210.049 276.039 206.529 274.105C203.009 272.172 199.056 271.21 194.679 271.21C190.303 271.21 186.33 272.172 182.781 274.105C179.232 276.039 176.452 278.838 174.432 282.493C172.413 286.157 171.403 290.409 171.403 295.256ZM178.059 283.839C179.848 280.723 182.194 278.405 185.109 276.875C188.023 275.346 191.178 274.586 194.583 274.586C197.988 274.586 201.152 275.346 204.096 276.875C207.039 278.405 209.405 280.723 211.194 283.839C212.983 286.956 213.878 290.755 213.878 295.256C213.878 299.758 212.983 303.644 211.194 306.76C209.405 309.876 207.029 312.194 204.057 313.724C201.085 315.253 197.901 316.013 194.496 316.013C191.091 316.013 187.937 315.253 185.022 313.724C182.108 312.194 179.771 309.876 178.02 306.76C176.26 303.644 175.385 299.815 175.385 295.256C175.385 290.697 176.279 286.956 178.068 283.839H178.059Z" fill="#64472C"/>
<path d="M267.461 329.902C265.932 332.643 263.845 334.75 261.19 336.221C258.535 337.693 255.563 338.424 252.283 338.424C247.551 338.424 243.608 337.308 240.434 335.096C237.259 332.874 235.095 329.892 233.941 326.141H230.046C231.258 330.931 233.797 334.73 237.654 337.558C241.52 340.386 246.387 341.8 252.274 341.8C256.256 341.8 259.853 340.915 263.085 339.164C266.317 337.404 268.885 334.894 270.78 331.643C272.684 328.382 273.636 324.592 273.636 320.264V271.816H269.741V284.012C268.356 280.261 265.932 277.193 262.479 274.798C259.016 272.403 254.813 271.21 249.85 271.21C245.464 271.21 241.559 272.191 238.125 274.153C234.691 276.116 232.008 278.915 230.084 282.541C228.151 286.177 227.189 290.409 227.189 295.256C227.189 300.104 228.151 304.355 230.084 308.02C232.017 311.685 234.701 314.512 238.125 316.494C241.559 318.485 245.464 319.475 249.85 319.475C254.755 319.475 258.949 318.254 262.44 315.801C265.932 313.349 268.365 310.251 269.75 306.5V320.255C269.75 323.948 268.991 327.161 267.461 329.902ZM267.24 306.202C265.566 309.347 263.248 311.771 260.276 313.464C257.304 315.166 254.005 316.013 250.369 316.013C246.734 316.013 243.29 315.176 240.376 313.502C237.461 311.829 235.201 309.434 233.585 306.327C231.969 303.211 231.161 299.527 231.161 295.256C231.161 290.986 231.969 287.302 233.585 284.185C235.201 281.069 237.452 278.693 240.337 277.049C243.223 275.404 246.57 274.586 250.369 274.586C254.169 274.586 257.285 275.433 260.228 277.135C263.171 278.838 265.49 281.261 267.192 284.397C268.894 287.542 269.741 291.159 269.741 295.256C269.741 299.354 268.904 303.057 267.23 306.202H267.24Z" fill="#64472C"/>
<path d="M291.728 291.707C291.728 285.773 293.258 281.483 296.316 278.857C299.375 276.231 303.203 274.923 307.82 274.923H309.119V270.855C304.559 270.855 300.818 271.759 297.875 273.577C294.931 275.394 292.883 278.03 291.728 281.493L291.728 271.807H287.833V318.783H291.728V291.707Z" fill="#64472C"/>
<path d="M362.135 318.783V271.807H358.24V284.09C356.855 280.338 354.431 277.251 350.978 274.837C347.515 272.413 343.312 271.201 338.349 271.201C333.963 271.201 330.058 272.182 326.624 274.144C323.19 276.106 320.507 278.905 318.583 282.531C316.65 286.167 315.688 290.399 315.688 295.247C315.688 300.095 316.65 304.346 318.583 308.011C320.516 311.675 323.2 314.503 326.624 316.484C330.058 318.475 333.963 319.466 338.349 319.466C343.254 319.466 347.448 318.244 350.94 315.792C354.431 313.339 356.864 310.213 358.249 306.404V318.774H362.145L362.135 318.783ZM355.739 306.202C354.065 309.347 351.747 311.771 348.775 313.464C345.803 315.167 342.504 316.013 338.868 316.013C335.233 316.013 331.789 315.176 328.875 313.503C325.96 311.829 323.7 309.434 322.084 306.327C320.468 303.211 319.66 299.527 319.66 295.256C319.66 290.986 320.468 287.302 322.084 284.186C323.7 281.069 325.951 278.694 328.836 277.049C331.722 275.404 335.069 274.587 338.868 274.587C342.668 274.587 345.784 275.433 348.727 277.135C351.67 278.838 353.989 281.262 355.691 284.397C357.393 287.543 358.24 291.159 358.24 295.256C358.24 299.354 357.403 303.057 355.729 306.202H355.739Z" fill="#64472C"/>
<path d="M382.035 318.783V275.269H394.231V271.807H382.035V268.517C382.035 264.593 382.911 261.765 384.671 260.043C386.431 258.312 389.557 257.446 394.058 257.446V253.984C388.403 253.984 384.344 255.186 381.862 257.571C379.381 259.966 378.14 263.612 378.14 268.517V271.807H371.042V275.269H378.14V318.783H382.035Z" fill="#64472C"/>
<path d="M408.074 271.816H404.178V318.792H408.074V271.816Z" fill="#64472C"/>
<path d="M409.458 257.976C409.458 256.994 409.141 256.187 408.506 255.552C407.871 254.917 407.092 254.599 406.169 254.599C405.245 254.599 404.466 254.917 403.831 255.552C403.197 256.187 402.879 256.994 402.879 257.976C402.879 259.014 403.197 259.832 403.831 260.438C404.466 261.044 405.245 261.342 406.169 261.342C407.092 261.342 407.871 261.044 408.506 260.438C409.141 259.832 409.458 259.014 409.458 257.976Z" fill="#64472C"/>
<path d="M462.484 271.816V284.099C461.099 280.348 458.675 277.26 455.222 274.846C451.76 272.422 447.556 271.21 442.593 271.21C438.207 271.21 434.302 272.191 430.869 274.153C427.435 276.116 424.751 278.915 422.828 282.541C420.894 286.177 419.932 290.409 419.932 295.256C419.932 300.104 420.894 304.355 422.828 308.02C424.761 311.685 427.444 314.512 430.869 316.494C434.302 318.485 438.207 319.475 442.593 319.475C447.499 319.475 451.692 318.254 455.184 315.801C458.675 313.349 461.109 310.223 462.494 306.414V318.783H466.389V271.807H462.494L462.484 271.816ZM459.974 306.202C458.3 309.347 455.982 311.771 453.01 313.464C450.038 315.166 446.739 316.013 443.103 316.013C439.467 316.013 436.024 315.176 433.11 313.502C430.195 311.829 427.935 309.434 426.319 306.327C424.703 303.211 423.895 299.527 423.895 295.256C423.895 290.986 424.703 287.302 426.319 284.185C427.935 281.069 430.186 278.693 433.071 277.049C435.957 275.404 439.304 274.586 443.103 274.586C446.902 274.586 450.019 275.433 452.962 277.135C455.905 278.838 458.223 281.261 459.926 284.397C461.628 287.542 462.475 291.159 462.475 295.256C462.475 299.354 461.638 303.057 459.964 306.202H459.974Z" fill="#64472C"/>
<path d="M312.177 447.958C242.568 470.148 166.217 452.825 112.903 402.742L110.267 405.551C148.962 441.899 199.555 461.309 251.1 461.309C271.933 461.309 292.93 458.134 313.35 451.623C361.567 436.253 401.599 403.848 426.944 361.729L423.308 360.315C398.425 401.376 359.288 432.944 312.186 447.958H312.177Z" fill="#64472C"/>
<path d="M250.475 445.39C265.605 445.39 280.668 443.601 295.239 440.081L294.403 436.608C280.11 440.061 265.326 441.821 250.485 441.821C182.512 441.821 119.925 404.771 87.1546 345.137L84.019 346.859C117.414 407.638 181.204 445.39 250.485 445.39H250.475Z" fill="#64472C"/>
</g>
</g>
<defs>
<clipPath id="clip0_3728_2685">
<rect width="512" height="512" fill="white"/>
</clipPath>
<clipPath id="clip1_3728_2685">
<rect x="45.6309" y="50.6308" width="420.738" height="410.677" rx="205.339" fill="white"/>
</clipPath>
</defs>
</svg>
