<svg width="9" height="16" viewBox="0 0 9 16" fill="none" xmlns="http://www.w3.org/2000/svg">
<path d="M8.04829 5.75281C8.34356 5.41075 8.64959 5.07845 8.94878 4.74029C8.9742 4.71097 8.983 4.66797 8.99962 4.63181C8.98202 4.59565 8.96931 4.5546 8.94487 4.52332C8.64177 4.13532 8.34748 3.73852 8.02874 3.3642C7.61614 2.87944 7.17225 2.42107 6.76355 1.93338C6.23363 1.30202 5.63623 0.738093 5.04764 0.165373C4.80223 -0.0730979 4.52358 -0.0486644 4.2987 0.206421C3.49696 1.11437 2.69327 2.02036 1.89739 2.93417C1.5063 3.38277 1.1289 3.8431 0.754429 4.30538C0.52173 4.59174 0.324228 4.90644 0.0494864 5.15859C-0.0238433 5.22603 -0.0101551 5.30422 0.0543751 5.37263C0.19419 5.52314 0.330095 5.67756 0.477732 5.82025C1.09957 6.42327 1.72336 7.02531 2.34911 7.62344C1.74585 8.24209 1.14161 8.85977 0.532485 9.47354C0.326184 9.68171 0.298807 9.68464 0.486531 9.98762C0.540307 10.0746 0.597993 10.1606 0.661545 10.2407C1.08588 10.7714 1.432 11.3539 1.77811 11.9355C2.5339 13.205 3.32781 14.4501 4.2019 15.6425C4.25079 15.709 4.30065 15.7735 4.35834 15.8321C4.58126 16.0588 4.9088 16.0559 5.11804 15.8174C5.2119 15.7099 5.28718 15.5858 5.3654 15.4656C6.45264 13.7983 7.53889 12.1309 8.62515 10.4626C8.68088 10.3766 8.73563 10.2896 8.77963 10.1977C8.83732 10.0795 8.83243 9.95537 8.75421 9.84786C8.65742 9.71494 8.55476 9.58691 8.45014 9.46083C8.10891 9.05133 7.76768 8.64085 7.42254 8.23427C7.1742 7.94205 6.92586 7.65178 6.67751 7.35956C6.73618 7.2931 6.79484 7.22762 6.85351 7.16018C7.25633 6.69497 7.64742 6.219 8.05025 5.75281H8.04829ZM7.80288 9.43151C7.92119 9.57323 8.03656 9.71787 8.14997 9.86448C8.28686 10.0414 8.29566 10.0854 8.18811 10.2486C7.86057 10.746 7.53987 11.2484 7.19278 11.7322C6.84568 12.2169 6.5289 12.7193 6.21603 13.2265C5.78485 13.9253 5.33705 14.6143 4.89609 15.3073C4.86285 15.3591 4.82178 15.404 4.72988 15.3747C4.69859 15.3464 4.64873 15.3102 4.60962 15.2643C4.18528 14.76 3.83232 14.2048 3.48425 13.6468C2.88686 12.689 2.29435 11.7283 1.69109 10.7734C1.54932 10.5486 1.36747 10.3483 1.21005 10.1332C0.871757 9.67194 0.878601 9.7726 1.23254 9.38265C1.50826 9.0787 1.79767 8.78647 2.08316 8.49229C2.27187 8.2978 2.46057 8.10429 2.64927 7.91078C3.18604 8.42192 3.72477 8.93014 4.26937 9.43347C4.32901 9.48918 4.39158 9.54488 4.461 9.58593C4.64384 9.69344 4.88142 9.62698 4.97529 9.4364C5.1503 9.0826 5.41331 8.79429 5.6685 8.50109C5.89924 8.23623 6.13194 7.9743 6.36562 7.71238C6.84568 8.2851 7.32379 8.85879 7.80288 9.43249V9.43151ZM2.98463 7.56578C3.44319 7.0947 3.90174 6.62362 4.35932 6.15254C4.40234 6.10856 4.44047 6.0597 4.48349 6.01572C4.65459 5.84566 4.74552 5.83882 4.89218 6.00399C5.21972 6.37147 5.54824 6.73992 5.866 7.1162C5.95106 7.21784 6.03612 7.31949 6.12119 7.42015C5.71347 7.92837 5.26078 8.4014 4.82472 8.88714C4.68295 9.04547 4.59788 9.05426 4.45905 8.92916C4.03276 8.54409 3.6006 8.16391 3.18702 7.76417C3.11858 7.69772 3.05112 7.63126 2.98365 7.5648L2.98463 7.56578ZM5.26469 5.70395C5.22461 5.65703 5.18061 5.61403 5.13955 5.5681C5.05155 5.47134 4.93911 5.42834 4.80027 5.41465C4.60962 5.37556 4.45025 5.46352 4.31532 5.60035C4.02787 5.89257 3.74628 6.19164 3.45981 6.48484C3.20266 6.74774 2.94552 7.01162 2.68838 7.27551C2.10858 6.70279 1.53172 6.12811 0.909888 5.60035C0.832648 5.53487 0.76714 5.45277 0.704565 5.37263C0.635146 5.28369 0.631235 5.18205 0.689899 5.08627C0.754429 4.98169 0.820915 4.87712 0.897178 4.78134C1.2169 4.37965 1.53075 3.97406 1.86415 3.5841C2.53096 2.80419 3.20951 2.03307 3.88414 1.25901C4.08653 1.02641 4.28697 0.793801 4.49424 0.566081C4.56562 0.487894 4.68979 0.488871 4.76899 0.569013C5.25981 1.0655 5.76138 1.55319 6.23362 2.06727C6.74693 2.62631 7.2358 3.2088 7.72857 3.78641C7.92803 4.02097 8.11478 4.26628 8.29957 4.51355C8.34748 4.57708 8.36703 4.6621 8.39538 4.72759C8.37583 4.77743 8.36605 4.8175 8.3465 4.85073C8.32597 4.88494 8.29566 4.91524 8.2673 4.94456C7.62982 5.63065 7.0119 6.33335 6.41744 7.05756C6.03221 6.60603 5.64796 6.1545 5.26372 5.70297L5.26469 5.70395Z" fill="#9A7854"/>
</svg>
