<svg width="22" height="2" viewBox="0 0 22 2" fill="none" xmlns="http://www.w3.org/2000/svg">
<path d="M20.3516 0.270508L20.3506 0.271484C20.6996 0.271542 20.9666 0.448987 21.1504 0.699219L21.1973 0.777344C21.2384 0.86263 21.2595 0.965496 21.2461 1.06152V1.0625C21.2136 1.28988 21.0104 1.37928 20.8652 1.38477L20.8643 1.38379L18.4951 1.50098C17.7673 1.53227 17.0387 1.55771 16.3096 1.57813L16.3105 1.5791C15.8786 1.59144 15.443 1.58558 15.0205 1.58691L13.7051 1.59375C12.3909 1.60247 11.0812 1.62211 9.77344 1.7002C8.99707 1.74688 8.20746 1.72318 7.4502 1.72852C7.08687 1.73123 6.72023 1.73399 6.35449 1.72852C5.26355 1.71358 4.17078 1.70104 3.07715 1.67383C2.88549 1.66911 2.68647 1.64104 2.50195 1.61328V1.62988L2.22168 1.5957C1.97456 1.56538 1.70671 1.53824 1.44824 1.49805C1.17558 1.45545 0.949563 1.30663 0.805664 1.06348L0.806641 1.0625C0.775619 1.01042 0.759959 0.954392 0.753906 0.907227C0.74809 0.861664 0.746347 0.791731 0.775391 0.720703L0.776367 0.716797C0.807738 0.643445 0.863435 0.593711 0.901367 0.566406C0.936933 0.540867 1.00948 0.497075 1.10254 0.49707H1.10742C1.53581 0.505231 1.96842 0.520477 2.39258 0.53125C3.03452 0.547569 3.67621 0.564942 4.31641 0.577148H4.31543C4.95888 0.588054 5.59789 0.603661 6.23535 0.599609C7.30594 0.592809 8.37151 0.58938 9.43555 0.548828C10.5834 0.505607 11.75 0.440277 12.9189 0.481445L13.3877 0.483398C13.5445 0.481 13.7042 0.476563 13.873 0.476563L15.2012 0.470703C16.5277 0.453313 17.852 0.40136 19.1738 0.293945V0.292969C19.5713 0.260627 19.9728 0.269172 20.3516 0.270508Z" fill="currentColor" stroke="currentColor" stroke-width="0.5"/>
</svg>
