<svg width="22" height="23" viewBox="0 0 22 23" fill="none" xmlns="http://www.w3.org/2000/svg">
    <path d="M11.7783 21.3438C11.789 21.5074 11.769 21.6671 11.7021 21.8145C11.6347 21.9631 11.5265 22.084 11.3877 22.1807L11.3877 22.1816C11.2837 22.2537 11.1597 22.2595 11.0693 22.2412C10.9847 22.224 10.8394 22.1645 10.7871 22.0049C10.76 21.9221 10.7045 21.7765 10.6953 21.6299C10.6786 21.3681 10.6641 21.1063 10.6504 20.8447L10.6123 20.0605C10.5961 19.7004 10.6143 19.4141 10.5791 19.0977C10.4693 18.1388 10.4929 17.1375 10.4414 16.2148C10.3879 15.2768 10.3552 14.3382 10.3271 13.4033C10.3031 12.5953 10.2929 11.7886 10.2822 10.9834C10.277 10.5541 10.2848 10.0973 10.2822 9.67578L10.2471 6.01758C10.2444 5.53528 10.2512 5.04849 10.2852 4.56152L10.2861 4.56152C10.3153 4.12121 10.269 3.69516 10.2441 3.22168L10.2432 3.22266C10.2327 3.03054 10.225 2.82489 10.2227 2.78027L10.3164 2.77441L10.2217 2.74902C10.2398 2.52778 10.2757 2.32432 10.3613 2.15625C10.4288 2.02398 10.5238 1.92246 10.6455 1.84766L10.6719 1.79199L10.6748 1.83105C10.7109 1.81089 10.7484 1.791 10.7891 1.77539L10.791 1.77539C10.8682 1.74645 10.9471 1.74681 11.0049 1.75488C11.0632 1.76303 11.1375 1.78415 11.2021 1.83008L11.2061 1.83301C11.2706 1.88089 11.3156 1.94859 11.3418 2.00195C11.3562 2.03135 11.3705 2.06714 11.3789 2.10645C11.3827 2.12424 11.3864 2.14849 11.3867 2.17676L11.373 2.27148L11.3721 2.27441C11.2629 2.61294 11.2604 2.96377 11.2803 3.34863C11.2995 3.72088 11.3427 4.14339 11.2949 4.55762L11.293 4.71582C11.2952 4.77721 11.2988 4.85976 11.291 4.94336L11.2686 5.23828C11.2255 5.92823 11.247 6.62053 11.2529 7.33301L11.2529 7.33398C11.2569 7.77069 11.2428 8.21755 11.2402 8.64355L11.2402 8.64453C11.2269 10.6209 11.2792 12.5922 11.4199 14.5625C11.4869 15.501 11.4941 16.4518 11.5283 17.376L11.5283 17.3779C11.5294 17.4132 11.5322 17.4503 11.5361 17.4932C11.5399 17.5339 11.5449 17.5826 11.5479 17.6309C11.6239 18.8686 11.6974 20.1069 11.7773 21.3438L11.7783 21.3438Z" fill="#9A7854" stroke="#9A7854" stroke-width="0.5"/>
    <path d="M20.3516 11.2612L20.3506 11.2622C20.6996 11.2623 20.9666 11.4397 21.1504 11.6899L21.1973 11.7681C21.2384 11.8534 21.2595 11.9562 21.2461 12.0522V12.0532C21.2136 12.2806 21.0104 12.37 20.8652 12.3755L20.8643 12.3745L18.4951 12.4917C17.7673 12.523 17.0387 12.5484 16.3096 12.5688L16.3105 12.5698C15.8786 12.5822 15.443 12.5763 15.0205 12.5776L13.7051 12.5845C12.3909 12.5932 11.0812 12.6128 9.77344 12.6909C8.99707 12.7376 8.20746 12.7139 7.4502 12.7192C7.08687 12.722 6.72023 12.7247 6.35449 12.7192C5.26355 12.7043 4.17078 12.6918 3.07715 12.6646C2.88549 12.6598 2.68647 12.6318 2.50195 12.604V12.6206L2.22168 12.5864C1.97456 12.5561 1.70671 12.529 1.44824 12.4888C1.17558 12.4462 0.949563 12.2973 0.805664 12.0542L0.806641 12.0532C0.775619 12.0011 0.759959 11.9451 0.753906 11.8979C0.74809 11.8524 0.746347 11.7825 0.775391 11.7114L0.776367 11.7075C0.807738 11.6342 0.863435 11.5844 0.901367 11.5571C0.936933 11.5316 1.00948 11.4878 1.10254 11.4878H1.10742C1.53581 11.496 1.96842 11.5112 2.39258 11.522C3.03452 11.5383 3.67621 11.5557 4.31641 11.5679H4.31543C4.95888 11.5788 5.59789 11.5944 6.23535 11.5903C7.30594 11.5835 8.37151 11.5801 9.43555 11.5396C10.5834 11.4963 11.75 11.431 12.9189 11.4722L13.3877 11.4741C13.5445 11.4717 13.7042 11.4673 13.873 11.4673L15.2012 11.4614C16.5277 11.444 17.852 11.3921 19.1738 11.2847V11.2837C19.5713 11.2513 19.9728 11.2599 20.3516 11.2612Z" fill="#9A7854" stroke="#9A7854" stroke-width="0.5"/>
</svg>
